# xmcd
#
# Track frame offsets:
#	150
#	22367
#	45385
#	68840
#	92355
#	115542
#	138457
#	161560
#	184355
#	207085
#	235330
#	246409
#	257402
#	268637
#	279952
#	291235
#	302612
#	313915
#	325082
#
# Disc length: 4430 seconds
#
# Revision: 2
# Processed by: cddbd v1.5.1PL0 Copyright (c) Steve Scherf et al.
# Submitted via: dBpowerAMP V4.0
#
DISCID=12114c13
DTITLE=Various Artist - To' Mixeao' 2
DYEAR=1900
DGENRE=Merengue
TTITLE0=Todos - To' Mixeao' 2 - 
TTITLE1=Sin Truco  (MIXEAO) - TONO ROSARIO
TTITLE2=Donde Estan Las Mujeres (MIXEAO) - RAVEL
TTITLE3=Ritmo (MIXEAO) - ROCKABANDA
TTITLE4=Mania (MIXEAO) - GRUPO MANIA
TTITLE5=Ye Se Me Olvido Tu Nombre (MIXEAO) - POCHY Y SU COCOBAND
TTITLE6=Kerengue (MIXEAO) - LOS KENTON
TTITLE7=La Pegue  (MIXEAO) - KINITO MENDEZ
TTITLE8=El Virao (MIXEAO) - LOS CANTANTES
TTITLE9=MEREN MIXEAO 2 - OCEANUS
TTITLE10=Sin Truco - TONO ROSARIO
TTITLE11=Donde Estan Las Mujeres - RAVEL
TTITLE12=Ritmo Loco - ROCKABANDA
TTITLE13=Mania - GRUPO MANIA
TTITLE14=Ye Se Me Olvido Tu Nombre - POCHY Y SU COCOBAND
TTITLE15=Kerengue - LOS KENTON
TTITLE16=La Pegue - KINITO MENDEZ
TTITLE17=El Virao - LOS CANTANTES
TTITLE18=To Mixeao - Solo Para Disc Jockeys - 
EXTD=
EXTT0=
EXTT1=
EXTT2=
EXTT3=
EXTT4=
EXTT5=
EXTT6=
EXTT7=
EXTT8=
EXTT9=
EXTT10=
EXTT11=
EXTT12=
EXTT13=
EXTT14=
EXTT15=
EXTT16=
EXTT17=
EXTT18=
PLAYORDER=
